<mxfile host="app.diagrams.net" modified="2023-09-08T03:10:32.776Z" agent="Mozilla/5.0 (Macintosh; Intel Mac OS X 10_15_7) AppleWebKit/537.36 (KHTML, like Gecko) Chrome/116.0.0.0 Safari/537.36" etag="3hClO9uahIaxSX9GIa17" version="21.7.2" type="github">
  <diagram name="Page-1" id="RmBPvIbNuPd7S8FZ7iyv">
    <mxGraphModel dx="2032" dy="1242" grid="1" gridSize="10" guides="1" tooltips="1" connect="1" arrows="1" fold="1" page="1" pageScale="1" pageWidth="850" pageHeight="1100" math="0" shadow="0">
      <root>
        <mxCell id="0" />
        <mxCell id="1" parent="0" />
        <mxCell id="hJk4Wc3B0cBzW_KDHihZ-11" style="edgeStyle=orthogonalEdgeStyle;rounded=0;orthogonalLoop=1;jettySize=auto;html=1;exitX=1;exitY=0.5;exitDx=0;exitDy=0;entryX=0;entryY=0.5;entryDx=0;entryDy=0;" parent="1" source="hJk4Wc3B0cBzW_KDHihZ-1" target="hJk4Wc3B0cBzW_KDHihZ-6" edge="1">
          <mxGeometry relative="1" as="geometry" />
        </mxCell>
        <mxCell id="hJk4Wc3B0cBzW_KDHihZ-12" value="Pull Metrics" style="edgeLabel;html=1;align=center;verticalAlign=middle;resizable=0;points=[];" parent="hJk4Wc3B0cBzW_KDHihZ-11" vertex="1" connectable="0">
          <mxGeometry x="-0.1372" relative="1" as="geometry">
            <mxPoint as="offset" />
          </mxGeometry>
        </mxCell>
        <mxCell id="hJk4Wc3B0cBzW_KDHihZ-1" value="Prometheus" style="rounded=1;whiteSpace=wrap;html=1;" parent="1" vertex="1">
          <mxGeometry x="150" y="165" width="120" height="60" as="geometry" />
        </mxCell>
        <mxCell id="hJk4Wc3B0cBzW_KDHihZ-3" style="edgeStyle=orthogonalEdgeStyle;rounded=0;orthogonalLoop=1;jettySize=auto;html=1;exitX=0.5;exitY=0;exitDx=0;exitDy=0;" parent="1" source="hJk4Wc3B0cBzW_KDHihZ-2" target="hJk4Wc3B0cBzW_KDHihZ-1" edge="1">
          <mxGeometry relative="1" as="geometry" />
        </mxCell>
        <mxCell id="hJk4Wc3B0cBzW_KDHihZ-4" value="Query QPS" style="edgeLabel;html=1;align=center;verticalAlign=middle;resizable=0;points=[];" parent="hJk4Wc3B0cBzW_KDHihZ-3" vertex="1" connectable="0">
          <mxGeometry x="0.0151" y="2" relative="1" as="geometry">
            <mxPoint as="offset" />
          </mxGeometry>
        </mxCell>
        <mxCell id="hJk4Wc3B0cBzW_KDHihZ-8" style="edgeStyle=orthogonalEdgeStyle;rounded=0;orthogonalLoop=1;jettySize=auto;html=1;exitX=1;exitY=0.5;exitDx=0;exitDy=0;" parent="1" source="hJk4Wc3B0cBzW_KDHihZ-14" target="hJk4Wc3B0cBzW_KDHihZ-5" edge="1">
          <mxGeometry relative="1" as="geometry" />
        </mxCell>
        <mxCell id="hJk4Wc3B0cBzW_KDHihZ-15" value="" style="edgeStyle=orthogonalEdgeStyle;rounded=0;orthogonalLoop=1;jettySize=auto;html=1;" parent="1" source="hJk4Wc3B0cBzW_KDHihZ-2" target="hJk4Wc3B0cBzW_KDHihZ-14" edge="1">
          <mxGeometry relative="1" as="geometry" />
        </mxCell>
        <mxCell id="hJk4Wc3B0cBzW_KDHihZ-2" value="Monitor Service" style="rounded=1;whiteSpace=wrap;html=1;" parent="1" vertex="1">
          <mxGeometry x="150" y="350" width="120" height="60" as="geometry" />
        </mxCell>
        <mxCell id="hJk4Wc3B0cBzW_KDHihZ-10" style="edgeStyle=orthogonalEdgeStyle;rounded=0;orthogonalLoop=1;jettySize=auto;html=1;entryX=0.5;entryY=0;entryDx=0;entryDy=0;" parent="1" source="hJk4Wc3B0cBzW_KDHihZ-7" target="hJk4Wc3B0cBzW_KDHihZ-5" edge="1">
          <mxGeometry relative="1" as="geometry" />
        </mxCell>
        <mxCell id="hJk4Wc3B0cBzW_KDHihZ-13" value="Query flagship" style="edgeLabel;html=1;align=center;verticalAlign=middle;resizable=0;points=[];" parent="hJk4Wc3B0cBzW_KDHihZ-10" vertex="1" connectable="0">
          <mxGeometry x="0.1432" relative="1" as="geometry">
            <mxPoint as="offset" />
          </mxGeometry>
        </mxCell>
        <mxCell id="hJk4Wc3B0cBzW_KDHihZ-5" value="Flagship" style="rounded=1;whiteSpace=wrap;html=1;" parent="1" vertex="1">
          <mxGeometry x="558" y="350" width="120" height="60" as="geometry" />
        </mxCell>
        <mxCell id="hJk4Wc3B0cBzW_KDHihZ-6" value="" style="rounded=1;whiteSpace=wrap;html=1;" parent="1" vertex="1">
          <mxGeometry x="548" y="165" width="120" height="60" as="geometry" />
        </mxCell>
        <mxCell id="hJk4Wc3B0cBzW_KDHihZ-7" value="Ottergate" style="rounded=1;whiteSpace=wrap;html=1;" parent="1" vertex="1">
          <mxGeometry x="558" y="175" width="120" height="60" as="geometry" />
        </mxCell>
        <mxCell id="hJk4Wc3B0cBzW_KDHihZ-16" value="" style="edgeStyle=orthogonalEdgeStyle;rounded=0;orthogonalLoop=1;jettySize=auto;html=1;exitX=1;exitY=0.5;exitDx=0;exitDy=0;" parent="1" source="hJk4Wc3B0cBzW_KDHihZ-2" target="hJk4Wc3B0cBzW_KDHihZ-14" edge="1">
          <mxGeometry relative="1" as="geometry">
            <mxPoint x="270" y="380" as="sourcePoint" />
            <mxPoint x="600" y="380" as="targetPoint" />
          </mxGeometry>
        </mxCell>
        <mxCell id="hJk4Wc3B0cBzW_KDHihZ-17" value="Turn on&lt;br&gt;&amp;nbsp;Downgrade Gate" style="edgeLabel;html=1;align=center;verticalAlign=middle;resizable=0;points=[];" parent="hJk4Wc3B0cBzW_KDHihZ-16" vertex="1" connectable="0">
          <mxGeometry x="-0.2412" y="3" relative="1" as="geometry">
            <mxPoint x="181" y="-23" as="offset" />
          </mxGeometry>
        </mxCell>
        <mxCell id="hJk4Wc3B0cBzW_KDHihZ-18" style="edgeStyle=orthogonalEdgeStyle;rounded=0;orthogonalLoop=1;jettySize=auto;html=1;exitX=0.5;exitY=0;exitDx=0;exitDy=0;entryX=0.75;entryY=0;entryDx=0;entryDy=0;" parent="1" source="hJk4Wc3B0cBzW_KDHihZ-14" target="hJk4Wc3B0cBzW_KDHihZ-2" edge="1">
          <mxGeometry relative="1" as="geometry" />
        </mxCell>
        <mxCell id="hJk4Wc3B0cBzW_KDHihZ-19" value="N" style="edgeLabel;html=1;align=center;verticalAlign=middle;resizable=0;points=[];" parent="hJk4Wc3B0cBzW_KDHihZ-18" vertex="1" connectable="0">
          <mxGeometry x="-0.197" y="1" relative="1" as="geometry">
            <mxPoint as="offset" />
          </mxGeometry>
        </mxCell>
        <mxCell id="hJk4Wc3B0cBzW_KDHihZ-14" value="&amp;gt; X" style="rhombus;whiteSpace=wrap;html=1;rounded=1;" parent="1" vertex="1">
          <mxGeometry x="330" y="340" width="80" height="80" as="geometry" />
        </mxCell>
        <mxCell id="hJk4Wc3B0cBzW_KDHihZ-25" value="" style="edgeStyle=orthogonalEdgeStyle;rounded=0;orthogonalLoop=1;jettySize=auto;html=1;entryX=0.5;entryY=0;entryDx=0;entryDy=0;" parent="1" source="hJk4Wc3B0cBzW_KDHihZ-20" target="hJk4Wc3B0cBzW_KDHihZ-26" edge="1">
          <mxGeometry relative="1" as="geometry">
            <mxPoint x="175" y="660" as="targetPoint" />
          </mxGeometry>
        </mxCell>
        <mxCell id="hJk4Wc3B0cBzW_KDHihZ-20" value="User" style="shape=umlActor;verticalLabelPosition=bottom;verticalAlign=top;html=1;outlineConnect=0;" parent="1" vertex="1">
          <mxGeometry x="160" y="520" width="30" height="60" as="geometry" />
        </mxCell>
        <mxCell id="hJk4Wc3B0cBzW_KDHihZ-32" style="edgeStyle=orthogonalEdgeStyle;rounded=0;orthogonalLoop=1;jettySize=auto;html=1;exitX=0.5;exitY=1;exitDx=0;exitDy=0;entryX=0.5;entryY=0;entryDx=0;entryDy=0;" parent="1" source="hJk4Wc3B0cBzW_KDHihZ-26" target="hJk4Wc3B0cBzW_KDHihZ-27" edge="1">
          <mxGeometry relative="1" as="geometry" />
        </mxCell>
        <mxCell id="hJk4Wc3B0cBzW_KDHihZ-35" value="" style="edgeStyle=orthogonalEdgeStyle;rounded=0;orthogonalLoop=1;jettySize=auto;html=1;" parent="1" source="hJk4Wc3B0cBzW_KDHihZ-26" target="hJk4Wc3B0cBzW_KDHihZ-34" edge="1">
          <mxGeometry relative="1" as="geometry" />
        </mxCell>
        <mxCell id="hJk4Wc3B0cBzW_KDHihZ-26" value="Authentication" style="rounded=1;whiteSpace=wrap;html=1;" parent="1" vertex="1">
          <mxGeometry x="115" y="660" width="120" height="60" as="geometry" />
        </mxCell>
        <mxCell id="hJk4Wc3B0cBzW_KDHihZ-30" value="" style="edgeStyle=orthogonalEdgeStyle;rounded=0;orthogonalLoop=1;jettySize=auto;html=1;exitX=1;exitY=0.5;exitDx=0;exitDy=0;" parent="1" source="hJk4Wc3B0cBzW_KDHihZ-26" target="hJk4Wc3B0cBzW_KDHihZ-29" edge="1">
          <mxGeometry relative="1" as="geometry" />
        </mxCell>
        <mxCell id="hJk4Wc3B0cBzW_KDHihZ-31" value="N: Validate Session" style="edgeLabel;html=1;align=center;verticalAlign=middle;resizable=0;points=[];" parent="hJk4Wc3B0cBzW_KDHihZ-30" vertex="1" connectable="0">
          <mxGeometry x="-0.1299" y="1" relative="1" as="geometry">
            <mxPoint x="105" y="-9" as="offset" />
          </mxGeometry>
        </mxCell>
        <mxCell id="hJk4Wc3B0cBzW_KDHihZ-33" style="edgeStyle=orthogonalEdgeStyle;rounded=0;orthogonalLoop=1;jettySize=auto;html=1;exitX=0.5;exitY=1;exitDx=0;exitDy=0;" parent="1" source="hJk4Wc3B0cBzW_KDHihZ-27" target="hJk4Wc3B0cBzW_KDHihZ-28" edge="1">
          <mxGeometry relative="1" as="geometry" />
        </mxCell>
        <mxCell id="hJk4Wc3B0cBzW_KDHihZ-46" value="" style="edgeStyle=orthogonalEdgeStyle;rounded=0;orthogonalLoop=1;jettySize=auto;html=1;" parent="1" source="hJk4Wc3B0cBzW_KDHihZ-27" target="hJk4Wc3B0cBzW_KDHihZ-45" edge="1">
          <mxGeometry relative="1" as="geometry" />
        </mxCell>
        <mxCell id="hJk4Wc3B0cBzW_KDHihZ-27" value="Authorization" style="rounded=1;whiteSpace=wrap;html=1;" parent="1" vertex="1">
          <mxGeometry x="115" y="900" width="120" height="60" as="geometry" />
        </mxCell>
        <mxCell id="hJk4Wc3B0cBzW_KDHihZ-63" style="edgeStyle=orthogonalEdgeStyle;rounded=0;orthogonalLoop=1;jettySize=auto;html=1;exitX=0.5;exitY=1;exitDx=0;exitDy=0;" parent="1" source="hJk4Wc3B0cBzW_KDHihZ-28" target="hJk4Wc3B0cBzW_KDHihZ-62" edge="1">
          <mxGeometry relative="1" as="geometry" />
        </mxCell>
        <mxCell id="hJk4Wc3B0cBzW_KDHihZ-28" value="Business Logic" style="rounded=1;whiteSpace=wrap;html=1;" parent="1" vertex="1">
          <mxGeometry x="115" y="1060" width="120" height="60" as="geometry" />
        </mxCell>
        <mxCell id="hJk4Wc3B0cBzW_KDHihZ-39" value="" style="edgeStyle=orthogonalEdgeStyle;rounded=0;orthogonalLoop=1;jettySize=auto;html=1;" parent="1" source="hJk4Wc3B0cBzW_KDHihZ-29" target="hJk4Wc3B0cBzW_KDHihZ-38" edge="1">
          <mxGeometry relative="1" as="geometry" />
        </mxCell>
        <mxCell id="hJk4Wc3B0cBzW_KDHihZ-29" value="Identity Service" style="whiteSpace=wrap;html=1;rounded=1;" parent="1" vertex="1">
          <mxGeometry x="520" y="660" width="120" height="60" as="geometry" />
        </mxCell>
        <mxCell id="hJk4Wc3B0cBzW_KDHihZ-44" style="edgeStyle=orthogonalEdgeStyle;rounded=0;orthogonalLoop=1;jettySize=auto;html=1;exitX=0.5;exitY=1;exitDx=0;exitDy=0;entryX=0.5;entryY=0;entryDx=0;entryDy=0;" parent="1" source="hJk4Wc3B0cBzW_KDHihZ-34" target="hJk4Wc3B0cBzW_KDHihZ-27" edge="1">
          <mxGeometry relative="1" as="geometry" />
        </mxCell>
        <mxCell id="hJk4Wc3B0cBzW_KDHihZ-53" value="Y" style="edgeLabel;html=1;align=center;verticalAlign=middle;resizable=0;points=[];" parent="hJk4Wc3B0cBzW_KDHihZ-44" vertex="1" connectable="0">
          <mxGeometry x="-0.8496" y="-3" relative="1" as="geometry">
            <mxPoint as="offset" />
          </mxGeometry>
        </mxCell>
        <mxCell id="hJk4Wc3B0cBzW_KDHihZ-34" value="Downgrade" style="rhombus;whiteSpace=wrap;html=1;rounded=1;" parent="1" vertex="1">
          <mxGeometry x="335" y="650" width="80" height="80" as="geometry" />
        </mxCell>
        <mxCell id="hJk4Wc3B0cBzW_KDHihZ-37" value="401" style="ellipse;whiteSpace=wrap;html=1;aspect=fixed;" parent="1" vertex="1">
          <mxGeometry x="690" y="790" width="80" height="80" as="geometry" />
        </mxCell>
        <mxCell id="hJk4Wc3B0cBzW_KDHihZ-40" style="edgeStyle=orthogonalEdgeStyle;rounded=0;orthogonalLoop=1;jettySize=auto;html=1;exitX=1;exitY=0.5;exitDx=0;exitDy=0;entryX=0;entryY=0.5;entryDx=0;entryDy=0;" parent="1" source="hJk4Wc3B0cBzW_KDHihZ-38" target="hJk4Wc3B0cBzW_KDHihZ-37" edge="1">
          <mxGeometry relative="1" as="geometry" />
        </mxCell>
        <mxCell id="hJk4Wc3B0cBzW_KDHihZ-41" value="N" style="edgeLabel;html=1;align=center;verticalAlign=middle;resizable=0;points=[];" parent="hJk4Wc3B0cBzW_KDHihZ-40" vertex="1" connectable="0">
          <mxGeometry x="-0.0631" y="-1" relative="1" as="geometry">
            <mxPoint y="-11" as="offset" />
          </mxGeometry>
        </mxCell>
        <mxCell id="hJk4Wc3B0cBzW_KDHihZ-42" style="edgeStyle=orthogonalEdgeStyle;rounded=0;orthogonalLoop=1;jettySize=auto;html=1;exitX=0;exitY=0.5;exitDx=0;exitDy=0;entryX=0.5;entryY=0;entryDx=0;entryDy=0;" parent="1" source="hJk4Wc3B0cBzW_KDHihZ-38" target="hJk4Wc3B0cBzW_KDHihZ-27" edge="1">
          <mxGeometry relative="1" as="geometry" />
        </mxCell>
        <mxCell id="hJk4Wc3B0cBzW_KDHihZ-43" value="Y" style="edgeLabel;html=1;align=center;verticalAlign=middle;resizable=0;points=[];" parent="hJk4Wc3B0cBzW_KDHihZ-42" vertex="1" connectable="0">
          <mxGeometry x="-0.0012" y="-6" relative="1" as="geometry">
            <mxPoint x="137" y="-4" as="offset" />
          </mxGeometry>
        </mxCell>
        <mxCell id="hJk4Wc3B0cBzW_KDHihZ-38" value="Success" style="rhombus;whiteSpace=wrap;html=1;rounded=1;" parent="1" vertex="1">
          <mxGeometry x="540" y="790" width="80" height="80" as="geometry" />
        </mxCell>
        <mxCell id="hJk4Wc3B0cBzW_KDHihZ-51" style="edgeStyle=orthogonalEdgeStyle;rounded=0;orthogonalLoop=1;jettySize=auto;html=1;exitX=0.5;exitY=1;exitDx=0;exitDy=0;entryX=0.5;entryY=0;entryDx=0;entryDy=0;" parent="1" source="hJk4Wc3B0cBzW_KDHihZ-45" target="hJk4Wc3B0cBzW_KDHihZ-28" edge="1">
          <mxGeometry relative="1" as="geometry" />
        </mxCell>
        <mxCell id="hJk4Wc3B0cBzW_KDHihZ-52" value="Y" style="edgeLabel;html=1;align=center;verticalAlign=middle;resizable=0;points=[];" parent="hJk4Wc3B0cBzW_KDHihZ-51" vertex="1" connectable="0">
          <mxGeometry x="-0.0489" y="-1" relative="1" as="geometry">
            <mxPoint as="offset" />
          </mxGeometry>
        </mxCell>
        <mxCell id="hJk4Wc3B0cBzW_KDHihZ-55" value="" style="edgeStyle=orthogonalEdgeStyle;rounded=0;orthogonalLoop=1;jettySize=auto;html=1;" parent="1" source="hJk4Wc3B0cBzW_KDHihZ-45" target="hJk4Wc3B0cBzW_KDHihZ-54" edge="1">
          <mxGeometry relative="1" as="geometry" />
        </mxCell>
        <mxCell id="hJk4Wc3B0cBzW_KDHihZ-45" value="Downgrade" style="rhombus;whiteSpace=wrap;html=1;rounded=1;" parent="1" vertex="1">
          <mxGeometry x="330" y="890" width="80" height="80" as="geometry" />
        </mxCell>
        <mxCell id="hJk4Wc3B0cBzW_KDHihZ-47" value="403" style="ellipse;whiteSpace=wrap;html=1;aspect=fixed;" parent="1" vertex="1">
          <mxGeometry x="690" y="1000" width="80" height="80" as="geometry" />
        </mxCell>
        <mxCell id="hJk4Wc3B0cBzW_KDHihZ-58" value="" style="edgeStyle=orthogonalEdgeStyle;rounded=0;orthogonalLoop=1;jettySize=auto;html=1;" parent="1" source="hJk4Wc3B0cBzW_KDHihZ-54" target="hJk4Wc3B0cBzW_KDHihZ-57" edge="1">
          <mxGeometry relative="1" as="geometry" />
        </mxCell>
        <mxCell id="hJk4Wc3B0cBzW_KDHihZ-54" value="authz check" style="whiteSpace=wrap;html=1;rounded=1;" parent="1" vertex="1">
          <mxGeometry x="520" y="900" width="120" height="60" as="geometry" />
        </mxCell>
        <mxCell id="hJk4Wc3B0cBzW_KDHihZ-59" value="N" style="edgeStyle=orthogonalEdgeStyle;rounded=0;orthogonalLoop=1;jettySize=auto;html=1;exitX=1;exitY=0.5;exitDx=0;exitDy=0;entryX=0;entryY=0.5;entryDx=0;entryDy=0;" parent="1" source="hJk4Wc3B0cBzW_KDHihZ-57" target="hJk4Wc3B0cBzW_KDHihZ-47" edge="1">
          <mxGeometry x="0.1429" y="10" relative="1" as="geometry">
            <mxPoint as="offset" />
          </mxGeometry>
        </mxCell>
        <mxCell id="hJk4Wc3B0cBzW_KDHihZ-60" style="edgeStyle=orthogonalEdgeStyle;rounded=0;orthogonalLoop=1;jettySize=auto;html=1;exitX=0;exitY=0.5;exitDx=0;exitDy=0;entryX=0.5;entryY=0;entryDx=0;entryDy=0;" parent="1" source="hJk4Wc3B0cBzW_KDHihZ-57" target="hJk4Wc3B0cBzW_KDHihZ-28" edge="1">
          <mxGeometry relative="1" as="geometry" />
        </mxCell>
        <mxCell id="hJk4Wc3B0cBzW_KDHihZ-61" value="Y" style="edgeLabel;html=1;align=center;verticalAlign=middle;resizable=0;points=[];" parent="hJk4Wc3B0cBzW_KDHihZ-60" vertex="1" connectable="0">
          <mxGeometry x="-0.6973" y="-2" relative="1" as="geometry">
            <mxPoint x="-22" y="-8" as="offset" />
          </mxGeometry>
        </mxCell>
        <mxCell id="hJk4Wc3B0cBzW_KDHihZ-57" value="Success" style="rhombus;whiteSpace=wrap;html=1;rounded=1;" parent="1" vertex="1">
          <mxGeometry x="540" y="1000" width="80" height="80" as="geometry" />
        </mxCell>
        <mxCell id="hJk4Wc3B0cBzW_KDHihZ-62" value="200" style="ellipse;whiteSpace=wrap;html=1;aspect=fixed;" parent="1" vertex="1">
          <mxGeometry x="135" y="1180" width="80" height="80" as="geometry" />
        </mxCell>
        <mxCell id="hJk4Wc3B0cBzW_KDHihZ-64" value="FMS User" style="shape=umlActor;verticalLabelPosition=bottom;verticalAlign=top;html=1;outlineConnect=0;" parent="1" vertex="1">
          <mxGeometry x="160" y="1350" width="30" height="60" as="geometry" />
        </mxCell>
        <mxCell id="hJk4Wc3B0cBzW_KDHihZ-65" value="Otter User" style="shape=umlActor;verticalLabelPosition=bottom;verticalAlign=top;html=1;outlineConnect=0;" parent="1" vertex="1">
          <mxGeometry x="160" y="1620" width="30" height="60" as="geometry" />
        </mxCell>
        <mxCell id="hJk4Wc3B0cBzW_KDHihZ-73" value="" style="edgeStyle=orthogonalEdgeStyle;rounded=0;orthogonalLoop=1;jettySize=auto;html=1;" parent="1" source="hJk4Wc3B0cBzW_KDHihZ-69" target="hJk4Wc3B0cBzW_KDHihZ-72" edge="1">
          <mxGeometry relative="1" as="geometry" />
        </mxCell>
        <mxCell id="hJk4Wc3B0cBzW_KDHihZ-76" value="First time" style="edgeLabel;html=1;align=center;verticalAlign=middle;resizable=0;points=[];" parent="hJk4Wc3B0cBzW_KDHihZ-73" vertex="1" connectable="0">
          <mxGeometry x="-0.1363" y="1" relative="1" as="geometry">
            <mxPoint as="offset" />
          </mxGeometry>
        </mxCell>
        <mxCell id="hJk4Wc3B0cBzW_KDHihZ-77" style="edgeStyle=orthogonalEdgeStyle;rounded=0;orthogonalLoop=1;jettySize=auto;html=1;exitX=1;exitY=0.5;exitDx=0;exitDy=0;" parent="1" source="hJk4Wc3B0cBzW_KDHihZ-69" target="hJk4Wc3B0cBzW_KDHihZ-71" edge="1">
          <mxGeometry relative="1" as="geometry" />
        </mxCell>
        <mxCell id="hJk4Wc3B0cBzW_KDHihZ-79" style="edgeStyle=orthogonalEdgeStyle;rounded=0;orthogonalLoop=1;jettySize=auto;html=1;exitX=0;exitY=0.5;exitDx=0;exitDy=0;entryX=1;entryY=0.3333333333333333;entryDx=0;entryDy=0;entryPerimeter=0;" parent="1" source="hJk4Wc3B0cBzW_KDHihZ-69" target="hJk4Wc3B0cBzW_KDHihZ-64" edge="1">
          <mxGeometry relative="1" as="geometry" />
        </mxCell>
        <mxCell id="hJk4Wc3B0cBzW_KDHihZ-69" value="Mundo" style="rounded=1;whiteSpace=wrap;html=1;" parent="1" vertex="1">
          <mxGeometry x="280" y="1340" width="120" height="60" as="geometry" />
        </mxCell>
        <mxCell id="hJk4Wc3B0cBzW_KDHihZ-71" value="DB" style="shape=cylinder3;whiteSpace=wrap;html=1;boundedLbl=1;backgroundOutline=1;size=15;" parent="1" vertex="1">
          <mxGeometry x="498" y="1330" width="60" height="80" as="geometry" />
        </mxCell>
        <mxCell id="hJk4Wc3B0cBzW_KDHihZ-74" style="edgeStyle=orthogonalEdgeStyle;rounded=0;orthogonalLoop=1;jettySize=auto;html=1;exitX=1;exitY=0.5;exitDx=0;exitDy=0;entryX=0.5;entryY=1;entryDx=0;entryDy=0;entryPerimeter=0;" parent="1" source="hJk4Wc3B0cBzW_KDHihZ-72" target="hJk4Wc3B0cBzW_KDHihZ-71" edge="1">
          <mxGeometry relative="1" as="geometry" />
        </mxCell>
        <mxCell id="hJk4Wc3B0cBzW_KDHihZ-75" value="Update" style="edgeLabel;html=1;align=center;verticalAlign=middle;resizable=0;points=[];" parent="hJk4Wc3B0cBzW_KDHihZ-74" vertex="1" connectable="0">
          <mxGeometry x="-0.3245" y="3" relative="1" as="geometry">
            <mxPoint as="offset" />
          </mxGeometry>
        </mxCell>
        <mxCell id="hJk4Wc3B0cBzW_KDHihZ-72" value="Ottergate" style="whiteSpace=wrap;html=1;rounded=1;" parent="1" vertex="1">
          <mxGeometry x="280" y="1480" width="120" height="60" as="geometry" />
        </mxCell>
        <mxCell id="hJk4Wc3B0cBzW_KDHihZ-80" value="" style="edgeStyle=orthogonalEdgeStyle;rounded=0;orthogonalLoop=1;jettySize=auto;html=1;" parent="1" source="hJk4Wc3B0cBzW_KDHihZ-83" target="hJk4Wc3B0cBzW_KDHihZ-87" edge="1">
          <mxGeometry relative="1" as="geometry" />
        </mxCell>
        <mxCell id="hJk4Wc3B0cBzW_KDHihZ-81" value="Every time" style="edgeLabel;html=1;align=center;verticalAlign=middle;resizable=0;points=[];" parent="hJk4Wc3B0cBzW_KDHihZ-80" vertex="1" connectable="0">
          <mxGeometry x="-0.1363" y="1" relative="1" as="geometry">
            <mxPoint as="offset" />
          </mxGeometry>
        </mxCell>
        <mxCell id="hJk4Wc3B0cBzW_KDHihZ-83" value="Mundo" style="rounded=1;whiteSpace=wrap;html=1;" parent="1" vertex="1">
          <mxGeometry x="262" y="1610" width="120" height="60" as="geometry" />
        </mxCell>
        <mxCell id="hJk4Wc3B0cBzW_KDHihZ-84" value="DB" style="shape=cylinder3;whiteSpace=wrap;html=1;boundedLbl=1;backgroundOutline=1;size=15;" parent="1" vertex="1">
          <mxGeometry x="480" y="1600" width="60" height="80" as="geometry" />
        </mxCell>
        <mxCell id="hJk4Wc3B0cBzW_KDHihZ-87" value="Ottergate" style="whiteSpace=wrap;html=1;rounded=1;" parent="1" vertex="1">
          <mxGeometry x="262" y="1750" width="120" height="60" as="geometry" />
        </mxCell>
        <mxCell id="hJk4Wc3B0cBzW_KDHihZ-88" value="" style="endArrow=none;html=1;rounded=0;strokeColor=#ff1e05;" parent="1" edge="1">
          <mxGeometry width="50" height="50" relative="1" as="geometry">
            <mxPoint x="410" y="1670" as="sourcePoint" />
            <mxPoint x="460" y="1620" as="targetPoint" />
          </mxGeometry>
        </mxCell>
        <mxCell id="hJk4Wc3B0cBzW_KDHihZ-89" value="" style="endArrow=none;html=1;rounded=0;strokeColor=#ff1e05;" parent="1" edge="1">
          <mxGeometry width="50" height="50" relative="1" as="geometry">
            <mxPoint x="460" y="1670" as="sourcePoint" />
            <mxPoint x="412" y="1622" as="targetPoint" />
          </mxGeometry>
        </mxCell>
        <mxCell id="hJk4Wc3B0cBzW_KDHihZ-90" value="Otter User" style="shape=umlActor;verticalLabelPosition=bottom;verticalAlign=top;html=1;outlineConnect=0;" parent="1" vertex="1">
          <mxGeometry x="160" y="1860" width="30" height="60" as="geometry" />
        </mxCell>
        <mxCell id="hJk4Wc3B0cBzW_KDHihZ-91" value="" style="edgeStyle=orthogonalEdgeStyle;rounded=0;orthogonalLoop=1;jettySize=auto;html=1;" parent="1" source="hJk4Wc3B0cBzW_KDHihZ-93" target="hJk4Wc3B0cBzW_KDHihZ-95" edge="1">
          <mxGeometry relative="1" as="geometry" />
        </mxCell>
        <mxCell id="hJk4Wc3B0cBzW_KDHihZ-92" value="First time" style="edgeLabel;html=1;align=center;verticalAlign=middle;resizable=0;points=[];" parent="hJk4Wc3B0cBzW_KDHihZ-91" vertex="1" connectable="0">
          <mxGeometry x="-0.1363" y="1" relative="1" as="geometry">
            <mxPoint as="offset" />
          </mxGeometry>
        </mxCell>
        <mxCell id="hJk4Wc3B0cBzW_KDHihZ-98" style="edgeStyle=orthogonalEdgeStyle;rounded=0;orthogonalLoop=1;jettySize=auto;html=1;exitX=1;exitY=0.5;exitDx=0;exitDy=0;entryX=0;entryY=0.5;entryDx=0;entryDy=0;entryPerimeter=0;" parent="1" source="hJk4Wc3B0cBzW_KDHihZ-93" target="hJk4Wc3B0cBzW_KDHihZ-94" edge="1">
          <mxGeometry relative="1" as="geometry" />
        </mxCell>
        <mxCell id="hJk4Wc3B0cBzW_KDHihZ-93" value="Mundo" style="rounded=1;whiteSpace=wrap;html=1;" parent="1" vertex="1">
          <mxGeometry x="262" y="1850" width="120" height="60" as="geometry" />
        </mxCell>
        <mxCell id="hJk4Wc3B0cBzW_KDHihZ-94" value="DB/Redis" style="shape=cylinder3;whiteSpace=wrap;html=1;boundedLbl=1;backgroundOutline=1;size=15;fillColor=#fff2cc;strokeColor=#d6b656;" parent="1" vertex="1">
          <mxGeometry x="480" y="1840" width="60" height="80" as="geometry" />
        </mxCell>
        <mxCell id="hJk4Wc3B0cBzW_KDHihZ-99" style="edgeStyle=orthogonalEdgeStyle;rounded=0;orthogonalLoop=1;jettySize=auto;html=1;exitX=1;exitY=0.5;exitDx=0;exitDy=0;entryX=0.5;entryY=1;entryDx=0;entryDy=0;entryPerimeter=0;" parent="1" source="hJk4Wc3B0cBzW_KDHihZ-95" target="hJk4Wc3B0cBzW_KDHihZ-94" edge="1">
          <mxGeometry relative="1" as="geometry" />
        </mxCell>
        <mxCell id="hJk4Wc3B0cBzW_KDHihZ-100" value="Save" style="edgeLabel;html=1;align=center;verticalAlign=middle;resizable=0;points=[];" parent="hJk4Wc3B0cBzW_KDHihZ-99" vertex="1" connectable="0">
          <mxGeometry x="-0.4298" y="2" relative="1" as="geometry">
            <mxPoint y="-8" as="offset" />
          </mxGeometry>
        </mxCell>
        <mxCell id="hJk4Wc3B0cBzW_KDHihZ-95" value="Ottergate" style="whiteSpace=wrap;html=1;rounded=1;" parent="1" vertex="1">
          <mxGeometry x="262" y="1990" width="120" height="60" as="geometry" />
        </mxCell>
        <mxCell id="53Idx5z0lws-6hM5EMtW-23" style="edgeStyle=orthogonalEdgeStyle;rounded=0;orthogonalLoop=1;jettySize=auto;html=1;exitX=0.5;exitY=1;exitDx=0;exitDy=0;" edge="1" parent="1" source="53Idx5z0lws-6hM5EMtW-3" target="53Idx5z0lws-6hM5EMtW-8">
          <mxGeometry relative="1" as="geometry" />
        </mxCell>
        <mxCell id="53Idx5z0lws-6hM5EMtW-24" value="Fetch QPS" style="edgeLabel;html=1;align=center;verticalAlign=middle;resizable=0;points=[];" vertex="1" connectable="0" parent="53Idx5z0lws-6hM5EMtW-23">
          <mxGeometry x="-0.3192" y="-1" relative="1" as="geometry">
            <mxPoint as="offset" />
          </mxGeometry>
        </mxCell>
        <mxCell id="53Idx5z0lws-6hM5EMtW-3" value="Redis" style="rounded=1;whiteSpace=wrap;html=1;" vertex="1" parent="1">
          <mxGeometry x="790" y="170" width="120" height="60" as="geometry" />
        </mxCell>
        <mxCell id="53Idx5z0lws-6hM5EMtW-6" style="edgeStyle=orthogonalEdgeStyle;rounded=0;orthogonalLoop=1;jettySize=auto;html=1;exitX=1;exitY=0.5;exitDx=0;exitDy=0;" edge="1" parent="1" source="53Idx5z0lws-6hM5EMtW-18" target="53Idx5z0lws-6hM5EMtW-11">
          <mxGeometry relative="1" as="geometry" />
        </mxCell>
        <mxCell id="53Idx5z0lws-6hM5EMtW-7" value="" style="edgeStyle=orthogonalEdgeStyle;rounded=0;orthogonalLoop=1;jettySize=auto;html=1;" edge="1" parent="1" source="53Idx5z0lws-6hM5EMtW-8" target="53Idx5z0lws-6hM5EMtW-18">
          <mxGeometry relative="1" as="geometry" />
        </mxCell>
        <mxCell id="53Idx5z0lws-6hM5EMtW-8" value="Monitor Service" style="rounded=1;whiteSpace=wrap;html=1;" vertex="1" parent="1">
          <mxGeometry x="790" y="355" width="120" height="60" as="geometry" />
        </mxCell>
        <mxCell id="53Idx5z0lws-6hM5EMtW-9" style="edgeStyle=orthogonalEdgeStyle;rounded=0;orthogonalLoop=1;jettySize=auto;html=1;entryX=0.5;entryY=0;entryDx=0;entryDy=0;" edge="1" parent="1" source="53Idx5z0lws-6hM5EMtW-13" target="53Idx5z0lws-6hM5EMtW-11">
          <mxGeometry relative="1" as="geometry" />
        </mxCell>
        <mxCell id="53Idx5z0lws-6hM5EMtW-10" value="Query flagship" style="edgeLabel;html=1;align=center;verticalAlign=middle;resizable=0;points=[];" vertex="1" connectable="0" parent="53Idx5z0lws-6hM5EMtW-9">
          <mxGeometry x="0.1432" relative="1" as="geometry">
            <mxPoint as="offset" />
          </mxGeometry>
        </mxCell>
        <mxCell id="53Idx5z0lws-6hM5EMtW-11" value="Flagship" style="rounded=1;whiteSpace=wrap;html=1;" vertex="1" parent="1">
          <mxGeometry x="1198" y="355" width="120" height="60" as="geometry" />
        </mxCell>
        <mxCell id="53Idx5z0lws-6hM5EMtW-19" style="edgeStyle=orthogonalEdgeStyle;rounded=0;orthogonalLoop=1;jettySize=auto;html=1;" edge="1" parent="1" source="53Idx5z0lws-6hM5EMtW-12" target="53Idx5z0lws-6hM5EMtW-3">
          <mxGeometry relative="1" as="geometry" />
        </mxCell>
        <mxCell id="53Idx5z0lws-6hM5EMtW-20" value="Publish&lt;br&gt;Key: timestamp value: qps" style="edgeLabel;html=1;align=center;verticalAlign=middle;resizable=0;points=[];" vertex="1" connectable="0" parent="53Idx5z0lws-6hM5EMtW-19">
          <mxGeometry x="0.2204" y="-2" relative="1" as="geometry">
            <mxPoint x="12" y="-18" as="offset" />
          </mxGeometry>
        </mxCell>
        <mxCell id="53Idx5z0lws-6hM5EMtW-12" value="" style="rounded=1;whiteSpace=wrap;html=1;" vertex="1" parent="1">
          <mxGeometry x="1188" y="170" width="120" height="60" as="geometry" />
        </mxCell>
        <mxCell id="53Idx5z0lws-6hM5EMtW-13" value="Ottergate" style="rounded=1;whiteSpace=wrap;html=1;" vertex="1" parent="1">
          <mxGeometry x="1198" y="180" width="120" height="60" as="geometry" />
        </mxCell>
        <mxCell id="53Idx5z0lws-6hM5EMtW-14" value="" style="edgeStyle=orthogonalEdgeStyle;rounded=0;orthogonalLoop=1;jettySize=auto;html=1;exitX=1;exitY=0.5;exitDx=0;exitDy=0;" edge="1" parent="1" source="53Idx5z0lws-6hM5EMtW-8" target="53Idx5z0lws-6hM5EMtW-18">
          <mxGeometry relative="1" as="geometry">
            <mxPoint x="910" y="385" as="sourcePoint" />
            <mxPoint x="1240" y="385" as="targetPoint" />
          </mxGeometry>
        </mxCell>
        <mxCell id="53Idx5z0lws-6hM5EMtW-15" value="Turn on&lt;br&gt;&amp;nbsp;Downgrade Gate" style="edgeLabel;html=1;align=center;verticalAlign=middle;resizable=0;points=[];" vertex="1" connectable="0" parent="53Idx5z0lws-6hM5EMtW-14">
          <mxGeometry x="-0.2412" y="3" relative="1" as="geometry">
            <mxPoint x="181" y="-23" as="offset" />
          </mxGeometry>
        </mxCell>
        <mxCell id="53Idx5z0lws-6hM5EMtW-16" style="edgeStyle=orthogonalEdgeStyle;rounded=0;orthogonalLoop=1;jettySize=auto;html=1;exitX=0.5;exitY=0;exitDx=0;exitDy=0;entryX=0.75;entryY=0;entryDx=0;entryDy=0;" edge="1" parent="1" source="53Idx5z0lws-6hM5EMtW-18" target="53Idx5z0lws-6hM5EMtW-8">
          <mxGeometry relative="1" as="geometry" />
        </mxCell>
        <mxCell id="53Idx5z0lws-6hM5EMtW-17" value="N" style="edgeLabel;html=1;align=center;verticalAlign=middle;resizable=0;points=[];" vertex="1" connectable="0" parent="53Idx5z0lws-6hM5EMtW-16">
          <mxGeometry x="-0.197" y="1" relative="1" as="geometry">
            <mxPoint as="offset" />
          </mxGeometry>
        </mxCell>
        <mxCell id="53Idx5z0lws-6hM5EMtW-18" value="&amp;gt; X" style="rhombus;whiteSpace=wrap;html=1;rounded=1;" vertex="1" parent="1">
          <mxGeometry x="970" y="345" width="80" height="80" as="geometry" />
        </mxCell>
      </root>
    </mxGraphModel>
  </diagram>
</mxfile>
